# AST/ASF file generated using VICON BodyLanguage
# -----------------------------------------------
:version 1.10
:name VICON
:units
  mass 1.0
  length 0.45
  angle deg
:documentation
   .ast/.asf automatically generated from VICON data using
   VICON BodyBuilder and BodyLanguage model FoxedUp or BRILLIANT.MOD
:root
   order TX TY TZ RX RY RZ
   axis XYZ
   position 0 0 0  
   orientation 0 0 0 
:bonedata
  begin
     id 1 
     name lhipjoint
     direction 0.662698 -0.695252 0.27831 
     length 2.53073 
     axis 0 0 0  XYZ
  end
  begin
     id 2 
     name lfemur
     direction 0.34202 -0.939693 0  
     length 7.16147  
     axis 0 0 20  XYZ
    dof rx ry rz
    limits (-160.0 20.0)
           (-70.0 70.0)
           (-60.0 70.0)
  end
  begin
     id 3 
     name ltibia
     direction 0.34202 -0.939693 0   
     length 7.63967   
     axis 0 0 20   XYZ
    dof rx
    limits (-10.0 170.0)
  end
  begin
     id 4 
     name lfoot
     direction 0.0938457 -0.257721 0.961651   
     length 1.89793   
     axis -90 7.62852e-016 20   XYZ
    dof rx rz
    limits (-45.0 90.0)
           (-70.0 20.0)
  end
  begin
     id 5 
     name ltoes
     direction -0.00116841 -0.0030592 0.999995   
     length 0.955649   
     axis -90 7.62852e-016 20   XYZ
    dof rx
    limits (-90.0 20.0)
  end
  begin
     id 6 
     name rhipjoint
     direction -0.649445 -0.705948 0.282592   
     length 2.49238  
     axis 0 0 0  XYZ 
  end
  begin
     id 7 
     name rfemur
     direction -0.34202 -0.939693 0   
     length 6.90728   
     axis 0 0 -20   XYZ
    dof rx ry rz
    limits (-160.0 20.0)
           (-70.0 70.0)
           (-70.0 60.0)
  end
  begin
     id 8 
     name rtibia
     direction -0.34202 -0.939693 0   
     length 7.72868   
     axis 0 0 -20   XYZ
    dof rx
    limits (-10.0 170.0)
 end
 begin
     id 9 
     name rfoot
     direction -0.0920068 -0.252865 0.963117   
     length 1.97476  
     axis -90 -7.62852e-016 -20   XYZ
    dof rx rz
    limits (-45.0 90.0)
           (-20.0 70.0)
  end
  begin
     id 10 
     name rtoes
     direction 0.000391322 0.00230649 0.999997   
     length 0.992641   
     axis -90 -7.62852e-016 -20   XYZ
    dof rx
    limits (-90.0 20.0)
  end
  begin
     id 11 
     name lowerback
     direction -0.00875327 0.998321 -0.0572635   
     length 2.20024   
     axis 0 0 0   XYZ
    dof rx ry rz
    limits (-20.0 45.0)
           (-30.0 30.0)
           (-30.0 30.0)
  end
  begin
     id 12 
     name upperback
     direction 0.00753931 0.999972 -0.000360425   
     length 2.20538   
     axis 0 0 0   XYZ
    dof rx ry rz
    limits (-20.0 45.0)
           (-30.0 30.0)
           (-30.0 30.0)
  end
  begin
     id 13 
     name thorax
     direction 0.0117767 0.999601 0.0256663   
     length 2.21508   
     axis 0 0 0   XYZ
    dof rx ry rz
    limits (-20.0 45.0)
           (-30.0 30.0)
           (-30.0 30.0)
  end
  begin
     id 14 
     name lowerneck
     direction 0.060228 0.994909 0.0807986   
     length 1.7607   
     axis 0 0 0   XYZ
    dof rx ry rz
    limits (-20.0 45.0)
           (-30.0 30.0)
           (-30.0 30.0)
  end
  begin
     id 15 
     name upperneck
     direction -0.0563647 0.959594 -0.275685   
     length 1.75612   
     axis 0 0 0   XYZ
    dof rx ry rz
    limits (-20.0 45.0)
           (-30.0 30.0)
           (-30.0 30.0)
  end
  begin
     id 16
     name head
     direction -0.0161544 0.99458 -0.102714  
     length 1.79288  
     axis 0 0 0   XYZ
    dof rx ry rz
    limits (-20.0 45.0)
           (-30.0 30.0)
           (-30.0 30.0)
  end
  begin
     id 17 
     name lclavicle
     direction 0.93913 0.332189 -0.087669  
     length 3.52087  
     axis 0 0 0   XYZ
    dof ry rz
    limits (-20.0 10.0)
           (0.0 20.0)
  end
  begin
     id 18 
     name lhumerus
     direction 1 -4.48974e-011 -2.70836e-027   
     length 5.35289   
     axis -180 -30 -90   XYZ
    dof rx ry rz
    limits (-60.0 90.0)
           (-90.0 90.0)
           (-90.0 90.0)
  end
  begin
     id 19
     name lradius
     direction 1 -4.48961e-011 -9.76021e-027   
     length 3.27727   
     axis -180 -30 -90   XYZ
    dof rx
    limits (-10.0 170.0)
  end
  begin
     id 20
     name lwrist
     direction 1 -4.49103e-011 -2.23668e-026   
     length 1.63864   
     axis 1.44924e-014 90 90   XYZ
    dof ry
    limits (-180.0 0.0)
 end
  begin
     id 21 
     name lhand
     direction 1 3.0697e-005 0.000161777   
     length 0.54443   
     axis 2.85318e-014 90 90   XYZ
    dof rx rz
    limits (-90.0 90.0)
           (-45.0 45.0)
  end
  begin
     id 22 
     name lfingers
     direction 1 -4.49027e-011 -8.9447e-026   
     length 0.438912   
     axis 5.70628e-014 90 90   XYZ
    dof rx
    limits (0.0 90.0)
  end
  begin
     id 23
     name lthumb
     direction 0.707058 2.6516e-005 0.707156   
     length 0.630274   
     axis -90 45 -3.53137e-014   XYZ
    dof rx rz
    limits (-45.0 45.0)
           (-45.0 45.0)
  end
  begin
     id 24 
     name rclavicle
     direction -0.95274 0.284984 -0.105215   
     length 3.43401  
     axis 0 0 0   XYZ 
    dof ry rz
    limits (-10.0 20.0)
           (-20.0 0.0)
  end
  begin
     id 25 
     name rhumerus
     direction -0.999999 -0.000575019 -0.00106829  
     length 5.52077   
     axis -180 30 90   XYZ
    dof rx ry rz
    limits (-90.0 60.0)
           (-90.0 90.0)
           (-90.0 90.0)
  end
  begin
     id 26 
     name rradius
     direction -1 -4.4879e-011 -6.35415e-027   
     length 3.32364   
     axis -180 30 90   XYZ
    dof rx
    limits (-10.0 170.0)
  end
  begin
     id 27 
     name rwrist
     direction -1 -4.49048e-011 -9.98542e-027   
     length 1.66182   
     axis 6.32482e-015 -90 -90   XYZ
    dof ry
    limits (-180.0 0.0)
  end
  begin
     id 28
     name rhand
     direction -1 -4.48978e-011 -1.99771e-026   
     length 0.732235   
     axis 1.27479e-014 -90 -90   XYZ
    dof rx rz
    limits (-90.0 90.0)
           (-45.0 45.0)
  end
  begin
     id 29
     name rfingers
     direction -1 -4.49144e-011 -3.99245e-026   
     length 0.590347   
     axis 2.5496e-014 -90 -90   XYZ
    dof rx
    limits (0.0 90.0)
  end
  begin
     id 30
     name rthumb
     direction -0.707107 -6.35121e-011 0.707107   
     length 0.847624   
     axis -90 -45 -2.82974e-014   XYZ
    dof rx rz
    limits (-45.0 45.0)
           (-45.0 45.0)
  end
:hierarchy
  begin
    root lhipjoint rhipjoint lowerback
    lhipjoint lfemur
    lfemur ltibia
    ltibia lfoot
    lfoot ltoes
    rhipjoint rfemur
    rfemur rtibia
    rtibia rfoot
    rfoot rtoes
    lowerback upperback
    upperback thorax
    thorax lowerneck lclavicle rclavicle
    lowerneck upperneck
    upperneck head
    lclavicle lhumerus
    lhumerus lradius
    lradius lwrist
    lwrist lhand lthumb
    lhand lfingers
    rclavicle rhumerus
    rhumerus rradius
    rradius rwrist
    rwrist rhand rthumb
    rhand rfingers
  end

#!OML:ASF G:\Work\Work\Patient Classification 1\Elijah\terrain1\Elijah.ASF
:FULLY-SPECIFIED
:DEGREES
1284
root 6.03322 18.7368 -14.4488 182.683 -3.12275 178.689
lowerback 15.8011 -0.131184 -4.37792
upperback 5.9226 -1.61938 1.86343
thorax -2.39603 -1.23087 4.74432
lowerneck 2.73428 15.2867 31.9521
upperneck 12.7985 30.4338 -31.4266
head 14.6816 15.6115 -11.7869
rclavicle -5.26779e-015 -7.95139e-015
rhumerus -37.4051 4.02167 -82.6235
rradius 43.6966
rwrist -11.7293
rhand -12.147 19.6145
rfingers 7.12502
rthumb 13.9154 -9.8999
lclavicle -5.26779e-015 -7.95139e-015
lhumerus -33.0421 -8.05723 89.3978
lradius 67.608
lwrist 13.4008
lhand -15.2519 27.7314
lfingers 7.12502
lthumb 10.9218 57.4274
rfemur -71.7547 -5.32656 21.7007
rtibia 86.2706
rfoot -17.1872 -4.11534
rtoes -14.4236
lfemur 3.84013 -10.3851 -22.5853
ltibia 23.6116
lfoot 20.5066 -8.7571
ltoes -34.7673
1285
root 5.99975 18.8153 -14.5667 182.73 -4.33507 177.372
lowerback 15.9134 -0.464811 -4.19522
upperback 5.65873 -2.00117 1.34815
thorax -2.71857 -1.37445 4.16898
lowerneck 4.57881 14.3406 32.5495
upperneck 12.6473 29.7163 -31.6234
head 14.1211 15.5707 -12.4493
rclavicle 2.64384e-014 -8.34896e-015
rhumerus -38.2172 3.29176 -82.4407
rradius 43.8442
rwrist -11.5562
rhand -12.5374 19.3324
rfingers 7.12502
rthumb 13.5391 -10.2074
lclavicle 2.64384e-014 -8.34896e-015
lhumerus -33.9016 -9.03953 89.8104
lradius 67.6049
lwrist 13.9527
lhand -15.8065 27.6855
lfingers 7.12502
lthumb 10.3868 57.4089
rfemur -70.9086 -7.13481 20.0284
rtibia 86.3268
rfoot -18.0556 -3.3684
rtoes -13.8886
lfemur 4.53684 -11.9278 -24.3569
ltibia 22.6547
lfoot 21.7155 -7.4078
ltoes -33.8768
1286
root 6.086 18.9052 -14.708 183.656 -3.56089 178.331
lowerback 15.0677 -0.232375 -4.11007
upperback 5.76269 -1.62574 1.85643
thorax -2.18137 -1.2079 4.56152
lowerneck 3.01467 15.1536 31.9606
upperneck 12.5715 30.2649 -31.5988
head 14.5144 15.5702 -11.9453
rclavicle -3.37934e-015 1.86858e-014
rhumerus -37.3748 3.51738 -82.4977
rradius 43.7766
rwrist -11.4559
rhand -12.8994 19.3163
rfingers 7.12502
rthumb 13.1902 -10.2464
lclavicle -3.37934e-015 1.86858e-014
lhumerus -33.4688 -8.97764 89.7321
lradius 67.5624
lwrist 14.6894
lhand -16.2551 27.6686
lfingers 7.12502
lthumb 9.95407 57.4132
rfemur -70.9441 -4.92492 21.1922
rtibia 85.5894
rfoot -18.2288 -4.60336
rtoes -14.2417
lfemur 3.46963 -11.9546 -22.9152
ltibia 22.5587
lfoot 22.1361 -6.27805
ltoes -33.2427
1287
root 6.06752 19.0051 -14.7854 183.915 -4.42524 178.203
lowerback 16.2421 -0.783809 -3.76781
upperback 5.66925 -2.37362 2.05247
thorax -2.82883 -1.57247 4.75313
lowerneck 2.637 15.6691 31.777
upperneck 12.4652 31.0895 -31.93
head 14.9524 15.87 -11.7027
rclavicle 1.96797e-014 -3.97569e-015
rhumerus -36.4744 4.61843 -82.5248
rradius 43.4618
rwrist -11.4096
rhand -13.2177 19.0294
rfingers 7.12502
rthumb 12.8833 -10.5529
lclavicle 1.96797e-014 -3.97569e-015
lhumerus -33.2543 -8.194 89.7476
lradius 67.7144
lwrist 15.597
lhand -16.6227 27.7987
lfingers 7.12502
lthumb 9.59936 57.56
rfemur -70.1148 -5.78377 20.9259
rtibia 85.0639
rfoot -18.9735 -4.64074
rtoes -15.6553
lfemur 3.19433 -13.1121 -23.078
ltibia 22.1595
lfoot 22.9478 -4.8142
ltoes -31.4674
1288
root 6.12682 19.1022 -14.8566 184.999 -4.07257 178.984
lowerback 15.5562 -0.734935 -3.43922
upperback 5.94296 -2.26298 2.42537
thorax -2.18338 -1.55658 4.90212
lowerneck 2.06059 16.231 31.7083
upperneck 12.1039 31.6256 -32.2118
head 15.2123 15.9857 -11.5034
rclavicle 1.98785e-015 -1.19271e-014
rhumerus -34.9536 4.77572 -82.6164
rradius 43.2363
rwrist -11.2089
rhand -13.4296 18.6474
rfingers 7.12502
rthumb 12.6791 -10.9477
lclavicle 1.98785e-015 -1.19271e-014
lhumerus -32.2309 -8.11611 89.4323
lradius 67.7766
lwrist 16.504
lhand -16.826 27.731
lfingers 7.12502
lthumb 9.40328 57.5012
rfemur -70.3654 -4.27365 21.8483
rtibia 84.0828
rfoot -19.0098 -5.65135
rtoes -16.873
lfemur 1.53246 -13.3 -21.6978
ltibia 22.1238
lfoot 23.6826 -3.36999
ltoes -29.8865
1289
root 6.13328 19.1996 -14.9842 185.274 -4.57646 178.838
lowerback 16.251 -1.08863 -3.21198
upperback 5.5971 -2.67834 2.47273
thorax -2.88033 -1.72213 4.94003
lowerneck 2.27863 16.3616 32.0791
upperneck 11.8928 32.15 -32.7279
head 15.5461 16.274 -11.5961
rclavicle -6.75868e-015 1.55052e-014
rhumerus -35.1391 5.37401 -82.7676
rradius 43.409
rwrist -11.3725
rhand -13.6804 18.8201
rfingers 7.12502
rthumb 12.4372 -10.7899
lclavicle -6.75868e-015 1.55052e-014
lhumerus -32.9109 -8.0162 89.4392
lradius 67.9016
lwrist 17.2771
lhand -17.1321 27.2313
lfingers 7.12502
lthumb 9.1079 57.0146
rfemur -69.4972 -4.63982 21.6399
rtibia 83.292
rfoot -19.3015 -5.84422
rtoes -16.7899
lfemur 0.704799 -13.8342 -21.8538
ltibia 23.2469
lfoot 23.9179 -3.89984
ltoes -31.5091
1290
root 6.13715 19.303 -15.1154 185.561 -5.0131 178.942
lowerback 15.4646 -1.38285 -2.81062
upperback 6.30562 -3.102 2.61134
thorax -1.6823 -2.0192 4.85809
lowerneck 0.955379 17.1406 31.4246
upperneck 11.3684 32.6307 -32.9901
head 15.7319 16.2456 -11.1995
rclavicle -1.0138e-014 2.50469e-014
rhumerus -33.6506 6.13988 -82.8755
rradius 43.5125
rwrist -11.6298
rhand -13.9556 19.0698
rfingers 7.12502
rthumb 12.1719 -10.5561
lclavicle -1.0138e-014 2.50469e-014
lhumerus -31.9068 -7.88906 89.1753
lradius 67.9295
lwrist 18.0861
lhand -17.4643 27.4283
lfingers 7.12502
lthumb 8.78734 57.2253
rfemur -68.5741 -4.87994 21.6828
rtibia 82.6138
rfoot -19.1744 -6.18192
rtoes -14.0351
lfemur 0.464915 -14.4579 -21.7952
ltibia 23.2908
lfoot 24.4691 -4.28934
ltoes -33.4704
1291
root 6.29933 19.349 -15.1076 187.783 -1.40342 181.775
lowerback 13.9608 -0.00444435 -2.70435
upperback 6.22284 -1.19679 3.64697
thorax -1.13537 -1.0883 5.547
lowerneck 0.674598 17.4961 31.4438
upperneck 10.5834 32.99 -33.7298
head 15.8546 16.3528 -11.2764
rclavicle -1.23246e-014 3.10104e-014
rhumerus -32.4397 6.77835 -82.9803
rradius 43.6314
rwrist -11.7496
rhand -14.3794 19.4197
rfingers 7.12502
rthumb 11.7633 -10.23
lclavicle -1.23246e-014 3.10104e-014
lhumerus -31.2449 -7.94583 88.8957
lradius 68.2457
lwrist 18.6777
lhand -17.1227 28.1673
lfingers 7.12502
lthumb 9.11695 57.9502
rfemur -70.8046 1.39199 24.6246
rtibia 80.8969
rfoot -17.1919 -8.13321
rtoes -13.5808
lfemur -2.87314 -12.305 -17.9145
ltibia 23.3785
lfoot 24.8608 -2.21066
ltoes -32.5828
1292
root 6.198 19.4862 -15.2681 186.998 -4.79002 178.952
lowerback 15.3389 -1.42155 -3.02678
upperback 6.28127 -3.17802 2.90904
thorax -1.60238 -2.06762 5.30262
lowerneck 0.749634 17.6063 31.5968
upperneck 10.3419 33.3402 -34.1715
head 16.0733 16.5336 -11.3388
rclavicle 4.17448e-014 -8.74653e-015
rhumerus -32.4781 7.78259 -83.0623
rradius 44.0013
rwrist -12.1597
rhand -14.6785 19.8551
rfingers 7.12502
rthumb 11.4748 -9.81087
lclavicle 4.17448e-014 -8.74653e-015
lhumerus -31.744 -7.87074 88.8896
lradius 68.6157
lwrist 19.0512
lhand -16.3086 28.4669
lfingers 7.12502
lthumb 9.90244 58.214
rfemur -68.4564 -3.60397 21.6969
rtibia 81.2679
rfoot -19.2391 -7.06343
rtoes -13.9098
lfemur -1.15385 -14.5469 -21.2963
ltibia 23.0289
lfoot 25.5113 -2.68375
ltoes -31.687
1293
root 6.1983 19.5672 -15.37 187.744 -5.0768 177.842
lowerback 14.6844 -1.57458 -3.95204
upperback 6.49258 -3.50414 2.82753
thorax -0.942841 -2.27121 5.74058
lowerneck 0.767169 17.792 31.6587
upperneck 9.6373 33.6469 -34.9452
head 16.1864 16.682 -11.5015
rclavicle -1.39149e-015 2.42517e-014
rhumerus -31.6891 8.57889 -82.8735
rradius 44.4574
rwrist -12.3781
rhand -14.5924 19.7735
rfingers 7.12502
rthumb 11.5578 -9.88777
lclavicle -1.39149e-015 2.42517e-014
lhumerus -31.3145 -7.75656 88.9038
lradius 68.7519
lwrist 19.4549
lhand -15.94 28.3681
lfingers 7.12502
lthumb 10.258 58.098
rfemur -68.4595 -4.09115 20.502
rtibia 80.9419
rfoot -19.5567 -6.99411
rtoes -14.4016
lfemur -1.85314 -14.3446 -22.4177
ltibia 23.3089
lfoot 26.1269 -2.85423
ltoes -31.5607
